<svg id="Layer_1" data-name="Layer 1" xmlns="http://www.w3.org/2000/svg" preserveAspectRatio="none" viewBox="0 0 32 32"><path class="cls-1" d="M23.85,7.15h.07l.73-.76a1.89,1.89,0,0,1-.44-.49l-.27.3C23.41,6.79,23.41,6.79,23.85,7.15Z"/><path class="cls-1" d="M22.66,8a25.55,25.55,0,0,1-3.8,4.32c-1,1.09-2.14,2.2-3.2,3.27l-1.73,1.74L8.17,23.17c-.12.12-.12.12-.12.32,5-5.13,10.17-10.08,15-15.34-.1-.1-.22-.39-.3-.47S22.76,7.81,22.66,8Z"/><path class="cls-1" d="M16,.42A15.58,15.58,0,1,0,31.6,16,15.58,15.58,0,0,0,16,.42ZM8.11,6h1V9h3.61V6h1v7.14h-1V9.89H9.11v3.27h-1Zm15,19a3.43,3.43,0,0,1-1.62.36A4,4,0,0,1,20,25.13a3.51,3.51,0,0,1-1.19-.78A3.57,3.57,0,0,1,18,23.17a4.21,4.21,0,0,1,0-3,3.45,3.45,0,0,1,.8-1.18A3.63,3.63,0,0,1,20,18.18a4.12,4.12,0,0,1,1.51-.27,4,4,0,0,1,.74.07,3.67,3.67,0,0,1,.72.21,3,3,0,0,1,.63.35,2.26,2.26,0,0,1,.48.48l-.79.61a2,2,0,0,0-.74-.6,2.3,2.3,0,0,0-1-.24A2.69,2.69,0,0,0,20.4,19a2.54,2.54,0,0,0-.85.62,2.8,2.8,0,0,0-.54.91,3.16,3.16,0,0,0-.19,1.1A3.34,3.34,0,0,0,19,22.78a2.71,2.71,0,0,0,.53.91,2.47,2.47,0,0,0,.85.61,2.71,2.71,0,0,0,1.11.22,2.47,2.47,0,0,0,1.1-.24,2.12,2.12,0,0,0,.82-.71l.8.54A3.21,3.21,0,0,1,23.1,25.05ZM26.5,8.13a2.68,2.68,0,0,1-1.27.82A6.15,6.15,0,0,0,23,10.28c-.64.52-1.25,1.09-1.84,1.67-1.82,1.79-3.63,3.6-5.44,5.4l-6.8,6.73a1.7,1.7,0,0,1-.28.23L6.13,25.85,6,25.92l1.65-2.65A1.63,1.63,0,0,1,7.85,23l7.48-7.67c1.63-1.67,3.28-3.34,4.9-5a12.84,12.84,0,0,0,2.24-2.91,13.05,13.05,0,0,0,.48-1.22,1.39,1.39,0,0,1,.16-.29,3,3,0,0,1,.7-.72L26.62,8A1.13,1.13,0,0,1,26.5,8.13Z"/></svg>